<?xml version="1.0" encoding="UTF-8"?>
<svg width="1264px" height="1422px" viewBox="0 0 1264 1422" version="1.1" xmlns="http://www.w3.org/2000/svg" xmlns:xlink="http://www.w3.org/1999/xlink">
    <!-- Generator: Sketch 53.2 (72643) - https://sketchapp.com -->
    <title>favicon</title>
    <desc>Created with Sketch.</desc>
    <g id="36-Concepts" stroke="none" stroke-width="1" fill="none" fill-rule="evenodd">
        <g id="favicon" fill="#6272A4">
            <path d="M753.373907,162.996786 L1045.40848,331.859275 C1093.69626,280.963528 1173.99837,278.949028 1224.83073,327.297025 C1233.58881,335.592025 1241.04501,345.131274 1247.14016,355.559273 C1281.99494,416.468269 1260.86904,494.145014 1200.0359,529.043262 C1189.73924,534.968262 1178.67329,539.412011 1167.01558,542.256011 L1167.01558,879.921739 C1234.83151,896.096988 1276.72826,964.234483 1260.51398,1032.13498 C1257.67352,1044.22198 1252.9986,1055.83498 1246.7851,1066.55923 C1211.75279,1127.17197 1134.29114,1147.96872 1073.57635,1112.89272 C1061.97781,1106.19747 1051.38527,1097.54697 1042.44967,1087.47448 L752.190383,1255.27046 C774.203931,1321.86746 738.106447,1393.61921 671.651569,1415.60095 C658.810333,1419.8077 645.495687,1421.99995 632.003512,1421.99995 C562.116415,1422.0592 505.425611,1365.41621 505.366435,1295.44196 C505.366435,1283.29571 507.082545,1271.14946 510.573941,1259.35871 L218.480196,1090.67398 C170.192413,1141.27347 90.0086559,1143.22872 39.4130011,1094.82147 C-11.1234775,1046.47348 -13.0171161,966.189733 35.2706668,915.530987 C52.0175326,897.933738 73.4984948,885.550489 97.0506242,879.803239 L97.1098004,542.137511 C29.0571653,525.784512 -12.8395874,457.232267 3.55222118,389.035521 C6.33350279,377.304022 10.8308943,365.987273 16.807691,355.500023 C51.840004,294.828027 129.360832,274.090529 190.016441,309.166526 C200.49063,315.150776 210.077175,322.675525 218.421019,331.503775 L510.633117,162.641286 C490.749912,95.5110402 529.036917,25.0627949 595.906028,5.21404615 C607.56374,1.71829638 619.813214,4.64889358e-05 632.003512,4.64889358e-05 C701.89061,-0.0592035072 758.581413,56.5245428 758.64059,126.439538 C758.699766,138.822787 756.865304,151.206037 753.373907,162.996786 Z M719.430536,214 C718.30674,215.245288 717.242091,216.312678 716,217.439367 L1098.14993,881 C1099.68776,880.466305 1101.46217,880.051209 1103,879.636113 L1103,541.21426 C1035.27648,524.432521 994.050894,455.704481 1010.84869,387.747333 C1011.20358,386.324147 1011.55846,384.841661 1011.97249,383.477774 L719.430536,214 Z M547.881742,217.55765 L544.333995,214 L251.881436,383.106943 C271.216654,450.405814 232.546218,520.550805 165.493812,539.939995 C163.956455,540.414348 162.478228,540.770113 161,541.185172 L161,879.636234 L165.966845,881 L548,217.498355 L547.881742,217.55765 Z M670.616551,248 C647.59898,254.666885 623.223962,254.666885 600.26541,248 L219,914.033688 C236.351708,930.879477 248.627746,952.4278 254.411648,976 L1016.41129,976 C1022.13618,952.308749 1034.53025,930.700899 1052,913.85511 L670.616551,248 Z M725.331792,1208 L1015,1043.24362 C1014.11561,1040.5151 1013.40809,1037.78658 1012.75954,1035 L251.23815,1035 L250,1039.81846 L541.201156,1205.38758 C564.077457,1181.93389 596.269364,1167.47852 631.998844,1167.47852 C668.966474,1167.47852 702.160694,1183.09497 725.331792,1208 Z" id="GraphQL" fill-rule="nonzero"></path>
            <text id="36" font-family="Rubik-Regular, Rubik" font-size="500" font-weight="normal">
                <tspan x="377" y="1068">36</tspan>
            </text>
        </g>
    </g>
</svg>